PathFileType	4	(X/Y/Z)	./resultDataOpenSim/trcMotMarkerGrf/sub09/qtm-12-03.trc
DataRate	CameraRate	NumFrames	NumMarkers	Units	OrigDataRate	OrigDataStartFrame	OrigNumFrames
250.000000	250.000000	13	24	m	250.000000	292	466
Frame#	Time	L.Toe.Tip			R.Toe.Tip			L.Ankle.Lat			R.Ankle.Lat			L.Ankle.Med			R.Ankle.Med			L.Heel			R.Heel			L.Knee.Lat			R.Knee.Lat			L.Knee.Med			R.Knee.Med			L.Thigh.Upper			R.Thigh.Upper			L.ASIS			R.ASIS			V.Sacral			L.Acromium			R.Acromium			C7			L.Elbow			R.Elbow			L.Wrist.Lat			R.Wrist.Lat
		X1	Y1	Z1	X2	Y2	Z2	X3	Y3	Z3	X4	Y4	Z4	X5	Y5	Z5	X6	Y6	Z6	X7	Y7	Z7	X8	Y8	Z8	X9	Y9	Z9	X10	Y10	Z10	X11	Y11	Z11	X12	Y12	Z12	X13	Y13	Z13	X14	Y14	Z14	X15	Y15	Z15	X16	Y16	Z16	X17	Y17	Z17	X18	Y18	Z18	X19	Y19	Z19	X20	Y20	Z20	X21	Y21	Z21	X22	Y22	Z22	X23	Y23	Z23	X24	Y24	Z24

292	1.164	0.22601313	0.020812887	-0.041761101	1.094133	0.041126894	-0.0006868452	0.14640585	0.14535626	-0.10879895	0.94514586	0.053340485	0.043008631	0.18297119	0.1519315	-0.018541033	0.94725342	0.092530817	-0.04810314	0.076050078	0.1706393	-0.060608404	0.87698673	0.031721314	-0.003807568	0.46234071	0.42970555	-0.1615104	0.90995123	0.5086115	0.10468617	0.47294372	0.41882939	-0.03692979	0.88843533	0.49345229	-0.018282754	0.60324637	0.81443863	-0.18877752	0.6800321	0.83848089	0.17710307	0.71608305	0.88850812	-0.14959457	0.74340297	0.92013554	0.088650916	0.56668732	0.96158049	-0.014121901	0.73476062	1.353428	-0.19222726	0.70732464	1.3697478	0.13858557	0.65661416	1.4137585	-0.031413754	0.57537658	1.0182784	-0.26909857	0.51256061	1.0772536	0.22218071	0.75076631	0.81186026	-0.25987939	0.54908483	0.81539715	0.28806121
293	1.168	0.2279701	0.02235774	-0.042423443	1.0945391	0.040829145	-0.00084653276	0.15244808	0.14989707	-0.11005536	0.94565282	0.053293544	0.04272691	0.18937462	0.15563007	-0.019840986	0.9477084	0.092472602	-0.048400014	0.083097118	0.17723448	-0.061773483	0.87716209	0.031785305	-0.0038121509	0.47312356	0.428435	-0.16287883	0.91640893	0.50861349	0.10425951	0.48414607	0.41661735	-0.038584062	0.89555756	0.49447393	-0.018900972	0.61080035	0.81393367	-0.18830235	0.68677584	0.83935545	0.17763995	0.72320888	0.88871351	-0.14897844	0.75055354	0.92121609	0.08914215	0.57383787	0.96198974	-0.014044277	0.74246236	1.3537087	-0.19220635	0.71521692	1.3701819	0.13851941	0.66411321	1.4142783	-0.031399251	0.58201678	1.0191808	-0.26889088	0.52105178	1.0771702	0.22238009	0.75612263	0.8115914	-0.25986547	0.55857787	0.81529593	0.28777904
294	1.172	0.23015365	0.024111388	-0.043116348	1.094893	0.040568551	-0.001039826	0.15887839	0.15462635	-0.11119817	0.9462082	0.053138715	0.042344327	0.19602684	0.15947712	-0.020953927	0.94814204	0.092356501	-0.048750348	0.09056109	0.1840185	-0.062957682	0.87732372	0.031826572	-0.0038922318	0.4840503	0.42715093	-0.16414914	0.9225011	0.50861951	0.10401868	0.49550519	0.4144108	-0.040044184	0.90231901	0.49523163	-0.019497311	0.61835746	0.81354001	-0.18774163	0.69354158	0.84025348	0.17812531	0.73029965	0.88900643	-0.14836464	0.75764139	0.92224267	0.08964781	0.58068774	0.96251804	-0.013928659	0.75010395	1.3540148	-0.19218491	0.72305174	1.3706821	0.1384343	0.671545	1.4148699	-0.03141436	0.58864335	1.0200992	-0.26871994	0.52953036	1.0771592	0.22262652	0.76142567	0.81133009	-0.259857	0.56811581	0.81525739	0.28747715
295	1.176	0.2326082	0.026105337	-0.04382363	1.0951721	0.040321656	-0.0013452562	0.16573248	0.15949012	-0.11219478	0.94681478	0.052886078	0.041900863	0.20293798	0.16350587	-0.021890262	0.9484916	0.092196321	-0.049107028	0.098442164	0.19097141	-0.064192318	0.87744267	0.031841049	-0.0039927581	0.49522908	0.42583722	-0.16537544	0.92823174	0.50864442	0.10391708	0.50710925	0.41229861	-0.04134154	0.90864173	0.49574491	-0.020067189	0.62590295	0.81327921	-0.18713238	0.70033619	0.84120499	0.17855268	0.73731699	0.88939092	-0.14777112	0.7646458	0.92322312	0.090143024	0.58716584	0.96320567	-0.01373679	0.7576649	1.3543603	-0.19216748	0.73082374	1.3712546	0.13833186	0.67890464	1.4155452	-0.031467717	0.59526048	1.0210261	-0.26858192	0.53798302	1.0772308	0.22292101	0.76667773	0.81107784	-0.2598564	0.5776892	0.8152876	0.28714901
296	1.18	0.23537434	0.028363111	-0.044551312	1.0953501	0.040093207	-0.0016815912	0.17303586	0.16444391	-0.11302854	0.94742232	0.052575464	0.041478969	0.21014208	0.16773242	-0.022660214	0.94871837	0.092024828	-0.049424708	0.10672969	0.19806133	-0.065449668	0.87749762	0.031836531	-0.0040789716	0.506706	0.42448133	-0.16656127	0.93368251	0.50866342	0.10385386	0.51905451	0.41040604	-0.042575402	0.91447845	0.49606015	-0.020592942	0.63336323	0.81312266	-0.18654077	0.70715095	0.84221908	0.17891614	0.7441998	0.88986784	-0.14723148	0.77154774	0.92417064	0.090601948	0.59340455	0.96405683	-0.013437206	0.76512293	1.3547601	-0.19216338	0.73853236	1.3719091	0.13821313	0.68619086	1.4162989	-0.031556341	0.60187365	1.0219555	-0.26847583	0.54639132	1.0773883	0.22326129	0.77189836	0.81084232	-0.25986946	0.58728828	0.81539029	0.28678517
297	1.184	0.23847769	0.030889424	-0.045322143	1.0954339	0.039904293	-0.0019374176	0.18078183	0.16947214	-0.11372047	0.94791063	0.052292528	0.041175182	0.21767405	0.17213747	-0.023274944	0.94884516	0.091872666	-0.049686878	0.11541841	0.20525566	-0.066656665	0.87749468	0.031833578	-0.0041466061	0.51845993	0.42309811	-0.1676841	0.93898174	0.50864369	0.1037283	0.53126268	0.4088113	-0.043769816	0.91981603	0.49622416	-0.021042147	0.64066325	0.81302241	-0.18601772	0.71397015	0.84328459	0.17920709	0.75092065	0.89043985	-0.14677285	0.77833826	0.92509801	0.091002462	0.59965332	0.96503652	-0.013040835	0.77245594	1.3552271	-0.19218346	0.74617927	1.3726497	0.13807895	0.69340031	1.4171226	-0.031663568	0.60848077	1.0228861	-0.26839725	0.55473311	1.0776243	0.22364205	0.777122	0.81063677	-0.25990766	0.59690345	0.81556326	0.28637909
298	1.188	0.24193133	0.033679612	-0.046157252	1.0954656	0.039770174	-0.0020975679	0.18893514	0.17457996	-0.11430878	0.94818819	0.052130463	0.04103725	0.22553792	0.1766789	-0.02374659	0.94894517	0.091758702	-0.049899179	0.12450617	0.21252324	-0.067729529	0.87746249	0.031852937	-0.0042076849	0.53046765	0.42172231	-0.16872363	0.94416154	0.50855635	0.1035049	0.54355182	0.40752928	-0.044868201	0.92466758	0.49626666	-0.021377038	0.6477914	0.81295185	-0.18556405	0.72076627	0.84438033	0.17941398	0.75749361	0.89110842	-0.146402	0.78501909	0.92601759	0.09133248	0.60607789	0.96610272	-0.012625777	0.77964248	1.3557703	-0.19223691	0.7537685	1.3734707	0.13793164	0.7005302	1.4180239	-0.031772411	0.61506898	1.0238243	-0.26832812	0.56298848	1.0779291	0.22405674	0.78236874	0.81047416	-0.25996706	0.60652797	0.81580449	0.2859295
299	1.192	0.24573925	0.036740091	-0.047063268	1.0954917	0.039687878	-0.0022098825	0.19745382	0.17977407	-0.11481152	0.94827268	0.052119458	0.041036715	0.23369884	0.18131624	-0.024086345	0.94908949	0.091683398	-0.050068312	0.1339799	0.21983253	-0.06860372	0.87743004	0.031900376	-0.0042681183	0.54272535	0.42039169	-0.16966486	0.94911931	0.5083846	0.10323095	0.55584309	0.40655016	-0.045814448	0.92906853	0.496201	-0.021574466	0.65478555	0.81290586	-0.18513984	0.72750848	0.84549278	0.17953578	0.76394743	0.89186849	-0.14611157	0.79159291	0.92694394	0.091592788	0.61267874	0.96722958	-0.012289469	0.78666505	1.3563968	-0.1923264	0.7613012	1.3743648	0.13777269	0.70758394	1.4190177	-0.031874444	0.62161987	1.0247789	-0.26823663	0.57114925	1.0783027	0.22450235	0.78760987	0.81036007	-0.26001472	0.61616031	0.81612069	0.2854388
300	1.196	0.24991058	0.040097973	-0.048027951	1.0955335	0.039642912	-0.0022967972	0.20630621	0.18506258	-0.11524174	0.94826848	0.052193822	0.041102144	0.24212175	0.18602137	-0.02430972	0.94930112	0.091632319	-0.050191015	0.14381257	0.22714947	-0.069257469	0.87740914	0.031963382	-0.0043163772	0.55521556	0.41914688	-0.17050611	0.953752	0.5081237	0.10299002	0.56821249	0.40580498	-0.046576488	0.93307879	0.49604329	-0.021637002	0.6616909	0.81289524	-0.18469527	0.7341967	0.84663232	0.179604	0.77031057	0.89271341	-0.14589243	0.79806061	0.92789656	0.091795721	0.61934443	0.96841034	-0.012066827	0.79351722	1.3571196	-0.19244531	0.76877191	1.3753335	0.13760098	0.71457664	1.4201098	-0.031966284	0.62811204	1.0257498	-0.26809255	0.57922929	1.0787581	0.22497939	0.79278591	0.81029523	-0.26002214	0.6258005	0.81652545	0.28490994
301	1.2	0.25447974	0.043787861	-0.049030451	1.0955802	0.03961849	-0.0023489258	0.21548063	0.19046683	-0.11564452	0.94827815	0.052247962	0.041169825	0.25082413	0.19077101	-0.024449491	0.94955305	0.091591896	-0.050260309	0.15398077	0.23443654	-0.069728402	0.87739485	0.032021777	-0.0043337218	0.56788449	0.41802695	-0.17124245	0.95802961	0.50776863	0.10283654	0.58075861	0.40513814	-0.047126122	0.93678361	0.49583197	-0.021581854	0.66853875	0.81296603	-0.1842183	0.74086594	0.84782678	0.17967341	0.77660723	0.89363903	-0.14574111	0.80442984	0.92889591	0.091957336	0.62595735	0.9696519	-0.011923913	0.80020233	1.3579577	-0.19259112	0.77617765	1.3763867	0.13741611	0.72152502	1.4212931	-0.032050731	0.63452986	1.026738	-0.26788437	0.58726456	1.0793134	0.22548371	0.7978606	0.81028642	-0.26001202	0.63544371	0.81703306	0.28434422
302	1.204	0.25949958	0.047824073	-0.050065306	1.0956081	0.039600819	-0.0023670422	0.22498996	0.19601169	-0.11608398	0.94834298	0.052218686	0.041204668	0.25985847	0.19554187	-0.024548408	0.9497994	0.091559369	-0.050277448	0.16447771	0.24166088	-0.070082375	0.87737781	0.032059761	-0.0043139286	0.58066124	0.4170596	-0.17184869	0.96195613	0.50733109	0.1027776	0.59342516	0.40446526	-0.047458461	0.94027494	0.49561887	-0.021436023	0.67531837	0.8131975	-0.18379037	0.74752825	0.84909228	0.17977857	0.78284728	0.89464426	-0.14565626	0.81071359	0.92995363	0.092083343	0.63246886	0.97096875	-0.011815902	0.80672547	1.3589272	-0.19277839	0.78352364	1.3775295	0.13721862	0.72842993	1.422554	-0.032138225	0.64088157	1.0277621	-0.26762139	0.59528039	1.0799776	0.22600068	0.80283516	0.81035006	-0.26004982	0.64507397	0.81765209	0.28374196
303	1.208	0.26500564	0.052176881	-0.051148173	1.0956062	0.039584017	-0.0023703043	0.23484701	0.20168986	-0.11658913	0.94845114	0.052105931	0.041194102	0.26924748	0.2003167	-0.024634374	0.95000564	0.091539193	-0.050255769	0.17529624	0.24880605	-0.070348118	0.87735379	0.032072027	-0.0042717399	0.59349471	0.41626557	-0.17230453	0.96556254	0.50687064	0.10280713	0.60602234	0.40388911	-0.047621235	0.9436091	0.49543676	-0.021242805	0.68196987	0.81365874	-0.18357318	0.75411823	0.85041373	0.17990539	0.78900868	0.89573539	-0.14562942	0.81691848	0.93107063	0.092165797	0.63888811	0.97238172	-0.011724312	0.81308963	1.3600332	-0.193027	0.79081327	1.3787535	0.13700484	0.73527958	1.4238861	-0.032241195	0.64718841	1.0288464	-0.26731538	0.60325178	1.0807382	0.22651138	0.80773713	0.81050629	-0.26017712	0.65466028	0.81837958	0.2831034
304	1.212	0.27100305	0.056779921	-0.052296535	1.0955804	0.039568623	-0.0023740275	0.24501477	0.2074323	-0.11711408	0.94855152	0.051950159	0.04114669	0.27897897	0.20508635	-0.02472298	0.95016244	0.091536276	-0.050214892	0.18640823	0.25586345	-0.070524709	0.87732388	0.032064072	-0.0042328693	0.60636369	0.41565859	-0.17261346	0.96892137	0.50646472	0.10292371	0.61846848	0.40354832	-0.047687469	0.94679208	0.49528831	-0.021038264	0.68844805	0.8143687	-0.18367007	0.76052199	0.8517627	0.18001423	0.7950548	0.89692005	-0.14564473	0.82304994	0.93224752	0.09219814	0.64523846	0.9739106	-0.011652285	0.81929559	1.3612719	-0.19334396	0.79804012	1.3800484	0.1367679	0.74206602	1.4252923	-0.032378286	0.65344838	1.0299999	-0.26695952	0.61112433	1.0815708	0.22700699	0.8126301	0.81077584	-0.26035827	0.66416383	0.81920647	0.28242706
